<svg xmlns="http://www.w3.org/2000/svg" width="90" height="24" viewBox="0 0 90 24">
      <path fill-rule="evenodd" clip-rule="evenodd" d="M61.5224 0.802513C62.5476 1.41748 62.9812 2.38227 62.9812 3.63907C62.9812 4.30884 62.8983 5.34303 62.8171 5.98593L62.0632 11.8699C61.7928 13.9835 60.8206 14.2785 58.956 14.7061C57.7958 14.9474 56.5526 15.054 54.8789 15.054C53.1516 15.054 51.4525 14.921 50.2925 14.2785C49.2373 13.6904 48.6439 12.7005 48.6439 11.0145C48.6439 10.1045 48.8857 9.08655 49.4003 8.28314C50.3444 6.78862 51.8572 6.43808 53.2066 6.22651L57.8226 5.53111C57.8502 5.39766 57.9025 4.54995 57.9025 4.25492C57.9025 3.93445 57.7958 3.63907 57.5256 3.50615C57.2013 3.31877 56.6063 3.23906 55.8512 3.23906C54.2306 3.23906 52.1244 3.85455 51.4762 3.98694C51.3435 4.01114 51.2912 4.01114 51.2605 4.01114C51.1023 4.01114 50.991 3.93445 50.9664 3.74654L50.7208 1.6335C50.6676 1.28598 50.8847 1.12298 51.1278 1.018C51.6417 0.802513 54.3931 0 57.4437 0C59.3075 0 60.6312 0.267979 61.5224 0.802513ZM57.1209 11.8432C56.9313 11.8978 56.1211 12.0574 55.3106 12.0574C54.3649 12.0574 53.5285 11.7099 53.5285 10.5846C53.5285 9.38104 54.2035 8.76554 55.365 8.57906L57.5529 8.23403L57.1209 11.8432ZM75.0781 1.1616C74.4838 0.922089 72.9851 0.312288 70.8767 0.312288C69.2291 0.312288 66.9342 0.472789 65.5038 1.99917C64.6127 2.98887 64.2615 4.32645 64.2615 5.63823C64.2615 6.97564 64.6664 7.80235 65.2868 8.31108C66.0967 9.0095 67.2581 9.16662 68.2844 9.38104C69.2557 9.59635 69.6622 9.75667 69.6622 10.4248C69.6622 10.799 69.5825 11.1478 69.2849 11.4149C68.9066 11.7631 68.3392 11.8432 67.8801 11.8432C66.4226 11.8432 64.4766 11.3621 64.0448 11.2825C63.8562 11.254 63.6404 11.3076 63.5627 11.6551L63.1299 13.5561C63.1001 13.6632 63.0764 13.7961 63.0764 13.9036C63.0764 14.1712 63.2342 14.2785 63.4 14.3321C63.9408 14.5185 65.9621 15.0289 68.2844 15.0289C70.6357 15.0289 72.6583 14.4118 73.8204 12.8879C74.5768 11.898 74.8752 10.612 74.8752 9.38104C74.8752 6.84111 73.1993 6.28042 71.5786 5.9587C71.0383 5.85283 70.5542 5.76938 70.1748 5.63823C69.7433 5.47791 69.446 5.23502 69.446 4.72753C69.446 4.35261 69.5552 4.00456 69.8778 3.79192C70.2838 3.49636 70.9056 3.46967 71.3374 3.46967C72.687 3.46967 73.8087 3.89299 74.1062 3.94619C74.2407 3.97306 74.2682 3.97306 74.3219 3.97306C74.5377 3.97306 74.7284 3.89299 74.8081 3.5969L75.2938 1.8319C75.3484 1.64453 75.3484 1.58777 75.3484 1.53723C75.3484 1.37691 75.2938 1.24345 75.0781 1.1616ZM85.25 9.63834C84.7573 9.63834 84.6638 9.90703 84.5724 10.6254C84.5323 10.9044 84.4882 11.1891 84.4882 11.4658C84.4882 11.8283 84.5724 12.0066 84.9529 12.0066C85.4357 12.0066 85.5441 11.7514 85.6373 11.0818C85.6784 10.7889 85.7246 10.4869 85.7246 10.2022C85.7246 10.0143 85.7084 9.87536 85.6454 9.79137C85.5766 9.68443 85.4499 9.63834 85.25 9.63834ZM80.2555 10.5321C80.3794 9.68425 80.5271 9.64599 80.9619 9.64599C81.1111 9.64599 81.3432 9.67607 81.3964 9.68425L81.1184 11.963C81.0795 11.9674 80.8839 12.0067 80.7288 12.0067C80.5271 12.0067 80.3857 11.9838 80.2944 11.901C80.2136 11.8215 80.1709 11.682 80.1709 11.446C80.1709 11.1402 80.207 10.8318 80.2555 10.5321ZM88.5377 0.802691C87.6491 0.267801 86.3272 0 84.4634 0C81.4127 0 78.6583 0.802691 78.145 1.01782C77.9018 1.12334 77.6842 1.2858 77.7417 1.63367L77.983 3.74637C78.0135 3.93427 78.1173 4.01132 78.2816 4.01132C78.3062 4.01132 78.3608 4.01132 78.4994 3.98676C79.144 3.85438 81.2515 3.23923 82.8722 3.23923C83.6266 3.23923 84.2194 3.31877 84.5451 3.50615C84.8155 3.63925 84.9245 3.93427 84.9245 4.25474C84.9245 4.54977 84.8683 5.39783 84.8408 5.53093L80.2239 6.22651C78.8736 6.4379 77.3619 6.7888 76.416 8.28332C75.9068 9.08655 75.6612 10.1044 75.6612 11.0144C75.6612 12.7005 76.2539 13.6908 77.3072 14.2783C78.4689 14.9209 80.1707 15.0538 81.8968 15.0538C83.5735 15.0538 84.8155 14.9476 85.9754 14.7063C87.8389 14.2783 88.8095 13.9833 89.081 11.8697L89.8343 5.98593C89.9156 5.34303 90 4.30866 90 3.63925C90 2.38245 89.5642 1.41765 88.5377 0.802691ZM82.0376 12.7626C82.5132 12.6169 82.5427 12.2927 82.5678 12.0993L83.1734 7.19077C83.1923 7.03578 83.0752 7.02831 82.9722 7.04468L81.8749 7.20518C81.7435 7.22973 81.6946 7.29629 81.6799 7.43081L81.5619 8.34133L81.5856 8.83512C81.4998 8.80451 81.1042 8.69454 80.6201 8.69454C79.7225 8.69454 79.2491 9.10452 78.9847 9.754C78.7892 10.2318 78.6779 10.8946 78.6779 11.4361C78.6779 12.0852 78.8436 12.4779 79.2112 12.6939C79.5311 12.8877 79.9897 12.9505 80.6115 12.9505C81.0418 12.9505 81.6014 12.8959 82.0376 12.7626ZM86.9402 11.8003C86.6741 12.4955 86.1232 12.9505 84.8439 12.9505C84.254 12.9505 83.8398 12.8477 83.5611 12.6705C83.132 12.4082 83.005 11.9672 83.005 11.4297C83.005 10.8711 83.1221 10.1015 83.3661 9.63834C83.6678 9.06591 84.2292 8.69454 85.3671 8.69454C86.0264 8.69454 86.4645 8.81892 86.7445 9.02747C87.105 9.29794 87.2059 9.71486 87.2059 10.2229C87.2059 10.7099 87.1086 11.3583 86.9402 11.8003ZM48.8812 1.43527C48.8812 1.27548 48.797 1.14096 48.5844 1.03579C47.9623 0.767815 46.0451 0.312288 43.8572 0.312288C40.2117 0.312288 38.1877 1.40858 37.0564 3.52376C36.1918 5.15494 35.8131 7.51088 35.8131 9.38086C35.8131 11.3074 36.1618 12.7265 37.2451 13.663C38.2405 14.4933 39.7802 14.9209 42.0491 14.9209C44.2359 14.9209 46.3146 14.5184 47.0165 14.1986C47.3135 14.0641 47.4509 13.9036 47.4225 13.5833L47.2613 11.5752C47.2338 11.3074 47.0447 11.2275 46.882 11.2275C46.8296 11.2275 46.775 11.2275 46.666 11.2539C45.5607 11.4955 44.803 11.63 43.8317 11.63C42.751 11.63 42.0222 11.4149 41.5621 10.9873C41.1308 10.5588 40.9421 9.91646 40.9421 9.03334C40.9421 8.01606 41.1309 6.6283 41.428 5.71795C41.9407 4.22004 42.9126 3.60366 44.8306 3.60366C46.0175 3.60366 46.991 3.81754 47.5811 3.95189C47.7182 3.97876 47.7743 3.97876 47.8274 3.97876C47.9915 3.97876 48.1781 3.89886 48.2587 3.62964L48.8275 1.73119C48.8545 1.62335 48.8812 1.51534 48.8812 1.43527Z" fill="#183C8F"/>
      <path fill-rule="evenodd" clip-rule="evenodd" d="M30.2327 0.294435H9.24727C8.48147 0.312408 7.74977 0.966163 7.66053 1.72099L5.82242 17.1461C5.7312 17.9008 6.2503 18.5191 7.01126 18.5191H9.52361C10.2869 18.5191 10.9809 17.9008 11.0726 17.1461L11.7982 11.0428C11.8873 10.2917 12.5245 9.3397 13.2146 8.93559L17.8706 6.20065C18.5607 5.79138 19.6109 5.79458 20.2054 6.20278L24.1657 8.92972C24.7584 9.3397 25.1682 10.2917 25.0789 11.0428L24.3408 17.2572C24.2295 18.0316 23.5534 18.6318 22.7919 18.6318H12.278C11.5154 18.6318 10.8225 19.2464 10.7322 20.0033L10.4352 22.4922C10.3463 23.2468 10.8942 23.8623 11.6573 23.8623H27.4333C28.1955 23.8623 28.8929 23.2468 28.9805 22.4922L31.4548 1.66921C31.5451 0.913491 30.9944 0.294435 30.2327 0.294435Z" fill="#183C8F"/>
      <path fill-rule="evenodd" clip-rule="evenodd" d="M0.00913551 22.5158C-0.0777698 23.2609 0.465209 23.8719 1.21845 23.8719H3.69597C4.44669 23.8719 5.13762 23.2609 5.2265 22.5158L5.5269 19.9857C5.61668 19.2383 5.07047 18.6303 4.32028 18.6303H1.83899C1.08683 18.6303 0.399671 19.2383 0.312047 19.9857L0.00913551 22.5158Z" fill="#183C8F"/>
      <path fill-rule="evenodd" clip-rule="evenodd" d="M42.9153 18.1086C41.2654 18.1086 40.5216 18.7064 40.1446 19.604C39.8853 20.226 39.7443 21.2403 39.7443 21.9263C39.7443 22.5452 39.8646 23.069 40.2401 23.4434C40.6042 23.7955 41.2122 24 42.1836 24C43.9086 24 44.6416 23.3475 44.9987 22.3839C45.2344 21.7754 45.3548 20.8439 45.3548 20.1728C45.3548 19.5504 45.2474 19.0475 44.8798 18.686C44.5155 18.3215 43.8996 18.1086 42.9153 18.1086ZM43.4989 21.7124C43.357 22.5129 43.1331 22.8872 42.3208 22.8872C41.9891 22.8872 41.7721 22.8251 41.6325 22.6934C41.4704 22.5452 41.428 22.3103 41.428 21.9773C41.428 21.4455 41.5139 20.8556 41.6108 20.3335C41.7516 19.5714 41.9891 19.2209 42.7752 19.2209C43.1331 19.2209 43.348 19.2947 43.4883 19.4442C43.6315 19.5958 43.6728 19.8184 43.6728 20.1396C43.6728 20.6536 43.5973 21.1989 43.4989 21.7124ZM49.7302 18.1086C49.0515 18.1086 48.1883 18.2242 47.627 18.3557C46.9776 18.5047 46.6995 18.6319 46.6447 19.0402L46.0595 23.7018C46.0518 23.8062 46.1267 23.8578 46.2251 23.8578H47.5398C47.648 23.8578 47.7226 23.7957 47.7353 23.7018L48.276 19.3493C48.3919 19.3153 48.92 19.2089 49.3844 19.2089C49.6427 19.2089 49.8176 19.2629 49.9248 19.3908C50.0004 19.4764 50.0331 19.6038 50.0331 19.7771C50.0331 19.9262 50.022 20.0447 50.0004 20.2262L49.5564 23.7018C49.5456 23.8062 49.6217 23.8578 49.7174 23.8578H51.0352C51.1336 23.8578 51.2067 23.7957 51.2182 23.7018L51.6714 20.1187C51.7055 19.8303 51.7294 19.6691 51.7294 19.4232C51.7294 19.0267 51.6051 18.7383 51.4006 18.5363C51.0808 18.216 50.5066 18.1086 49.7302 18.1086ZM57.2252 18.3557C57.0184 18.2899 56.3608 18.1087 55.4963 18.1087C54.8055 18.1087 53.8891 18.2041 53.3486 18.8463C53.0482 19.2088 52.9202 19.7109 52.9202 20.1809C52.9202 20.6294 53.0482 20.9209 53.2658 21.1353C53.6097 21.4739 54.1584 21.5604 54.557 21.6264C54.8192 21.6679 55.01 21.7006 55.1632 21.7754C55.3147 21.8483 55.3889 21.9683 55.3889 22.1934C55.3889 22.3752 55.3217 22.5572 55.1632 22.6845C54.9808 22.8459 54.6976 22.8953 54.3958 22.8953C53.7258 22.8953 53.0044 22.6845 52.866 22.6519C52.8216 22.6402 52.8098 22.6402 52.79 22.6402C52.7252 22.6402 52.6828 22.6727 52.6498 22.7704L52.4339 23.4548C52.4216 23.497 52.4216 23.5176 52.4216 23.5502C52.4216 23.6461 52.4884 23.6566 52.52 23.6774C52.7031 23.7646 53.5427 23.9872 54.4707 23.9872C55.3147 23.9872 56.0689 23.806 56.5456 23.3147C56.9207 22.9197 57.0855 22.3839 57.0855 21.8604C57.0855 21.3885 56.9552 21.0784 56.7392 20.8764C56.458 20.6004 56.0235 20.5015 55.5922 20.428C55.0978 20.3333 54.6035 20.2994 54.6035 19.8636C54.6035 19.6687 54.6692 19.5093 54.8055 19.3908C55.01 19.2296 55.3352 19.2 55.6047 19.2C56.175 19.2 56.728 19.3285 56.8686 19.3493C56.9207 19.357 56.9313 19.357 56.9426 19.357C57.0184 19.357 57.0855 19.3285 57.1037 19.2534L57.3211 18.5461C57.354 18.4185 57.2879 18.3765 57.2252 18.3557ZM61.7784 18.2484H60.3421L60.5549 16.535C60.5797 16.3959 60.4924 16.3331 60.3421 16.3544L59.0917 16.569C58.9389 16.6001 58.8746 16.6743 58.8508 16.8236L58.2473 21.7419C58.2189 21.9683 58.1727 22.2688 58.1727 22.5334C58.1727 23.038 58.3026 23.3784 58.5802 23.6151C58.8746 23.8507 59.3163 23.9452 59.9107 23.9452C60.6334 23.9452 61.1297 23.806 61.2913 23.7528C61.4211 23.7114 61.4737 23.6464 61.4635 23.508L61.4112 22.8124C61.3994 22.7466 61.3647 22.6727 61.2494 22.6934C61.0866 22.7259 60.8036 22.7799 60.4833 22.7799C60.2561 22.7799 60.1017 22.7379 60.0076 22.6727C59.8891 22.5866 59.8561 22.4503 59.8561 22.2775C59.8561 22.0957 59.8891 21.819 59.9107 21.6789L60.2001 19.4234H61.6351C61.7353 19.4234 61.81 19.3568 61.8195 19.2629L61.9271 18.4084C61.9398 18.2988 61.8774 18.2484 61.7784 18.2484ZM66.2514 18.1167H66.1398C65.3947 18.1406 64.4132 18.2484 63.7579 18.4712C63.4136 18.5991 63.2391 18.7176 63.1957 19.0267L62.6146 23.7018C62.6028 23.8062 62.6983 23.8578 62.7744 23.8578H64.0906C64.199 23.8578 64.2764 23.7957 64.2861 23.7018L64.8048 19.4547C65.0092 19.4114 65.5694 19.3362 66.1966 19.3362C66.3796 19.3362 66.4011 19.2415 66.4122 19.1244L66.5101 18.3424C66.5282 18.1507 66.4011 18.1167 66.2514 18.1167ZM72.5398 18.1086C72.5191 18.1086 72.4974 18.1086 72.4319 18.1169L71.2342 18.3107C71.0843 18.3313 71.0187 18.4187 70.9965 18.5666L70.5654 22.0425C70.4998 22.5336 70.3373 22.908 69.5507 22.908C69.2273 22.908 69.0221 22.8578 68.8948 22.7377C68.7736 22.6313 68.7204 22.4583 68.7204 22.2562C68.7204 22.0957 68.7409 21.9265 68.7648 21.7658L69.2067 18.299C69.2273 18.1619 69.1411 18.0842 68.9903 18.1086L67.7392 18.3107C67.586 18.3313 67.5233 18.4187 67.503 18.5666L67.1344 21.551C67.1028 21.7752 67.0574 22.0957 67.0574 22.3523C67.0574 22.8578 67.187 23.2188 67.447 23.4763C67.8363 23.8578 68.4945 23.9998 69.4105 23.9998C71.2028 23.9998 72.053 23.4021 72.2374 21.9684L72.7019 18.299C72.7213 18.1619 72.6346 18.1086 72.5398 18.1086ZM77.2388 18.2484H75.8041L76.0196 16.535C76.0411 16.3959 75.9557 16.3331 75.8041 16.3544L74.5521 16.569C74.4011 16.6001 74.3366 16.6743 74.3168 16.8236L73.7105 21.7419C73.6789 21.9683 73.6351 22.2688 73.6351 22.5334C73.6351 23.038 73.7636 23.3784 74.045 23.6151C74.3366 23.8507 74.7779 23.9452 75.3723 23.9452C76.0955 23.9452 76.5898 23.806 76.7513 23.7528C76.884 23.7114 76.9341 23.6464 76.9276 23.508L76.8716 22.8124C76.8603 22.7466 76.8303 22.6727 76.7105 22.6934C76.5487 22.7259 76.2675 22.7799 75.9424 22.7799C75.7165 22.7799 75.5673 22.7379 75.4685 22.6727C75.3509 22.5866 75.3177 22.4503 75.3177 22.2775C75.3177 22.0957 75.3509 21.819 75.3723 21.6789L75.6646 19.4234H77.0991C77.1976 19.4234 77.2716 19.3568 77.2822 19.2629L77.3885 18.4084C77.4009 18.2988 77.3372 18.2484 77.2388 18.2484ZM81.1854 18.1086C79.5367 18.1086 78.7937 18.7064 78.4145 19.604C78.1563 20.226 78.0145 21.2403 78.0145 21.9263C78.0145 22.5452 78.136 23.069 78.514 23.4434C78.8769 23.7955 79.4838 24 80.4526 24C82.18 24 82.9145 23.3475 83.2692 22.3839C83.5089 21.7754 83.624 20.8439 83.624 20.1728C83.624 19.5504 83.5179 19.0475 83.1519 18.686C82.7831 18.3215 82.1672 18.1086 81.1854 18.1086ZM81.7688 21.7124C81.6314 22.5129 81.4028 22.8872 80.5931 22.8872C80.26 22.8872 80.0442 22.8251 79.9025 22.6934C79.7412 22.5452 79.6985 22.3103 79.6985 21.9773C79.6985 21.4455 79.7852 20.8556 79.8809 20.3335C80.0239 19.5714 80.26 19.2209 81.0482 19.2209C81.4029 19.2209 81.6201 19.2947 81.7605 19.4442C81.8972 19.5958 81.9426 19.8184 81.9426 20.1396C81.9426 20.6536 81.8688 21.1989 81.7688 21.7124ZM88.0951 18.1167H87.9867C87.2415 18.1406 86.2599 18.2484 85.6045 18.4712C85.2588 18.5991 85.0856 18.7176 85.0401 19.0267L84.4585 23.7018C84.4496 23.8062 84.5451 23.8578 84.6194 23.8578H85.9372C86.0438 23.8578 86.1203 23.7957 86.1315 23.7018L86.6488 19.4547C86.8563 19.4114 87.4133 19.3362 88.0391 19.3362C88.224 19.3362 88.2449 19.2415 88.2567 19.1244L88.3522 18.3424C88.3761 18.1507 88.2449 18.1167 88.0951 18.1167ZM39.2972 18.3847C39.0486 18.2573 38.2716 18.1086 37.4728 18.1086C36.0302 18.1086 35.2414 18.5577 34.797 19.4442C34.4842 20.0942 34.3343 21.0704 34.3343 21.8275C34.3343 22.5336 34.4745 23.0692 34.8419 23.4229C35.2204 23.7847 35.832 23.9585 36.7508 23.9585C37.5478 23.9585 38.3596 23.8172 38.6372 23.6772C38.7485 23.6357 38.811 23.5825 38.7983 23.4546L38.7485 22.8016C38.7358 22.6936 38.6582 22.6631 38.5954 22.6631C38.5629 22.6631 38.5411 22.6631 38.4998 22.6727C38.2511 22.7377 37.7856 22.8455 37.2794 22.8455C36.7919 22.8455 36.4804 22.7468 36.2758 22.5453C36.102 22.3631 36.0176 22.0757 36.0176 21.6791C36.0176 21.199 36.1148 20.5351 36.2661 20.1187C36.5008 19.4767 36.9233 19.2294 37.722 19.2294C38.2386 19.2294 38.6911 19.3362 38.9284 19.402C39.0486 19.4342 39.1459 19.391 39.1769 19.2835L39.3944 18.6235C39.4055 18.5897 39.4055 18.5668 39.4055 18.5361C39.4055 18.4712 39.3727 18.429 39.2972 18.3847Z" fill="#183C8F"/>
      </svg>