<svg width="56" height="43" viewBox="0 0 56 43" xmlns="http://www.w3.org/2000/svg">
<path fill-rule="evenodd" clip-rule="evenodd" d="M53.7264 0.523438H16.4333C15.0723 0.555355 13.7721 1.71652 13.6135 3.0572L10.347 30.4546C10.1849 31.7949 11.1074 32.8932 12.4597 32.8932H16.9243C18.2808 32.8932 19.5141 31.7949 19.6771 30.4546L20.9665 19.6141C21.1248 18.28 22.2573 16.5892 23.4835 15.8714L31.7578 11.0137C32.9841 10.2868 34.8504 10.2925 35.9069 11.0175L42.9447 15.861C43.998 16.5892 44.7262 18.28 44.5676 19.6141L43.2558 30.6518C43.058 32.0272 41.8566 33.0933 40.5034 33.0933H21.8192C20.464 33.0933 19.2326 34.1849 19.0721 35.5294L18.5443 39.95C18.3864 41.2903 19.3599 42.3835 20.7161 42.3835H48.7515C50.106 42.3835 51.3454 41.2903 51.5011 39.95L55.8981 2.96523C56.0586 1.62297 55.08 0.523438 53.7264 0.523438Z" fill="#F7CE46"/>
<path fill-rule="evenodd" clip-rule="evenodd" d="M0.0162346 39.9919C-0.138204 41.3152 0.826719 42.4006 2.16529 42.4006H6.56808C7.90218 42.4006 9.13004 41.3152 9.28798 39.9919L9.82182 35.498C9.98136 34.1706 9.0107 33.0907 7.67755 33.0907H3.26806C1.9314 33.0907 0.710252 34.1706 0.554537 35.498L0.0162346 39.9919Z" fill="#F7CE46"/>
</svg>